# Blender v2.91.0 OBJ File: ''
# www.blender.org
mtllib Medkitlarge.mtl
o w_medkit
v -11.936246 0.136584 -5.830893
v -13.216249 0.136584 3.349106
v -12.546249 3.576584 3.829107
v -12.716251 3.576584 8.419107
v -12.976251 0.136584 8.569106
v -9.896253 3.576584 14.679107
v -10.186253 0.136584 14.939107
v -6.846253 3.576584 16.389109
v -6.546254 0.136584 17.609108
v -4.486253 3.576584 15.749108
v -3.016253 0.136584 16.799110
v -3.706252 3.576584 11.909109
v -1.726252 0.136584 13.579109
v 0.283749 2.606584 8.089111
v 0.973748 0.136584 11.079110
v 6.163749 2.006584 7.979112
v 7.273749 0.136584 10.149113
v 9.883749 3.576584 6.629114
v 11.633749 0.136584 7.669115
v 11.093750 3.576584 5.109114
v 13.223750 0.136584 5.479115
v 11.013751 3.576584 0.869114
v 12.393751 0.136584 0.999115
v 11.123754 3.576584 -5.660886
v 11.123754 0.136584 -5.660886
v 11.013751 0.136584 0.869114
v 12.073750 0.136584 5.299115
v 11.013749 0.136584 7.049114
v 7.343749 0.136584 9.099113
v 0.523749 0.136584 10.309110
v -2.296252 0.136584 12.979111
v -3.636253 0.136584 16.449110
v -6.716254 0.136584 16.669107
v -9.606253 0.136584 14.419107
v -12.446251 0.136584 8.269106
v -12.546249 0.136584 3.829107
v -12.066248 3.576584 -0.000893
v -12.066248 0.136584 -0.000893
v -11.936246 3.576584 -5.830893
v 7.943756 5.796584 -13.930887
v 11.033752 3.946584 1.599114
v 11.033756 3.946584 -12.700886
v 7.943751 5.796584 2.829113
v 5.013753 6.616584 -3.710888
v -8.816244 5.796584 -13.930892
v -7.536243 3.946584 -17.020891
v 6.663757 3.946584 -17.020887
v -8.816249 5.796584 2.829108
v -11.906249 3.946584 1.599107
v -7.536250 3.946584 5.919109
v -11.906244 3.946584 -12.700893
v -5.886247 6.616584 -3.710891
v -5.886249 6.616584 2.809108
v -5.886250 3.946584 5.919109
v 6.663757 0.086584 -17.020887
v 11.033756 0.086584 -12.700886
v 11.033752 0.086584 1.599114
v 6.663750 0.086584 5.919113
v 6.663750 3.946584 5.919113
v 5.013750 3.946584 5.919112
v 5.013751 6.616584 2.809112
v 2.943752 3.266584 0.609111
v -3.816248 3.266584 0.609109
v -11.906244 0.086584 -12.700893
v -11.906249 0.086584 1.599107
v -7.536250 0.086584 5.919109
v -7.536243 0.086584 -17.020891
vt 0.000000 0.000000
vt 0.385827 0.000000
vt 0.385827 1.000000
vt 0.606299 1.000000
vt 0.614173 0.000000
vt 0.874016 1.000000
vt 0.881890 0.000000
vt 0.976378 1.000000
vt 0.992126 0.000000
vt 0.952756 1.000000
vt 0.960630 0.000000
vt 0.811024 1.000000
vt 0.826772 0.000000
vt 0.700787 1.000000
vt 0.716535 0.000000
vt 0.653543 1.000000
vt 0.677165 0.000000
vt 0.559055 1.000000
vt 0.574803 0.000000
vt 0.472441 1.000000
vt 0.480315 0.000000
vt 0.291339 1.000000
vt 0.291339 0.000000
vt 0.000000 1.000000
vt 0.000000 0.000000
vt 0.251969 0.000000
vt 0.472441 0.000000
vt 0.543307 0.000000
vt 0.629921 0.000000
vt 0.685039 0.000000
vt 0.795276 0.000000
vt 0.944882 0.000000
vt 0.952756 0.000000
vt 0.858268 0.000000
vt 0.598425 0.000000
vt 0.409449 1.000000
vt 0.409449 0.000000
vt 0.244094 1.000000
vt 0.244094 0.000000
vt 0.000000 1.000000
vt 0.251969 1.000000
vt 0.228346 0.238095
vt 0.125984 0.738095
vt 0.125984 0.277778
vt 0.228346 0.777778
vt 0.314961 0.563492
vt 0.763780 0.238095
vt 0.732283 0.134921
vt 0.259843 0.134921
vt 0.763780 0.777778
vt 0.858268 0.738095
vt 0.732283 0.873016
vt 0.858268 0.277778
vt 0.669291 0.563492
vt 0.669291 0.777778
vt 0.669291 0.873016
vt 0.188976 0.000000
vt 0.000000 0.182540
vt 0.000000 0.817460
vt 0.188976 1.000000
vt 0.267717 0.873016
vt 0.322835 0.873016
vt 0.314961 0.873016
vt 0.314961 0.777778
vt 0.385827 0.706349
vt 0.606299 0.706349
vt 0.724409 0.134921
vt 0.992126 0.182540
vt 0.992126 0.817460
vt 0.803150 1.000000
vt 0.724409 0.873016
vt 0.661417 0.873016
vt 0.732283 0.000000
vt 0.259843 0.000000
vt 0.267717 0.134921
vt 0.803150 0.000000
vn -0.9896 0.1042 -0.0995
vn -0.9860 0.1614 -0.0420
vn -0.9878 0.1349 -0.0782
vn -0.9821 0.1238 0.1423
vn -0.9529 0.0933 0.2887
vn -0.8044 0.1055 0.5846
vn -0.6847 0.1532 0.7125
vn -0.2945 0.2440 0.9240
vn -0.0446 0.3389 0.9398
vn 0.5025 0.4295 0.7504
vn 0.6858 0.5132 0.5161
vn 0.7672 0.5481 0.3330
vn 0.6223 0.6470 0.4406
vn 0.4043 0.7246 0.5582
vn 0.2191 0.7749 0.5929
vn 0.0390 0.7660 0.6416
vn 0.1607 0.6808 0.7146
vn 0.3722 0.6040 0.7048
vn 0.6152 0.4910 0.6168
vn 0.7673 0.5481 0.3330
vn 0.8682 0.4827 0.1150
vn 0.9048 0.4220 -0.0567
vn 0.9614 0.2495 -0.1158
vn 0.9777 0.1906 -0.0881
vn 0.9823 0.0000 -0.1873
vn -0.9840 -0.1288 0.1227
vn -0.9021 -0.2972 -0.3128
vn -0.9747 -0.1810 -0.1311
vn -0.6423 -0.2716 -0.7168
vn -0.5149 -0.4147 -0.7503
vn -0.2434 -0.4763 -0.8449
vn -0.1948 -0.6247 -0.7562
vn -0.2948 -0.6116 -0.7342
vn -0.4794 -0.5749 -0.6630
vn -0.7370 -0.4866 -0.4691
vn -0.8228 -0.4006 -0.4032
vn -0.7580 -0.3599 -0.5440
vn -0.4582 -0.2367 -0.8568
vn 0.0582 -0.1381 -0.9887
vn 0.3623 -0.0094 -0.9320
vn 0.6962 0.0572 -0.7155
vn 0.8284 0.1050 -0.5502
vn 0.9585 0.0931 -0.2696
vn 0.9888 0.0562 -0.1380
vn 0.9986 0.0255 0.0460
vn 0.9971 -0.0000 0.0756
vn 0.9921 0.0000 0.1251
vn -0.9980 0.0000 -0.0630
vn -0.9998 0.0000 0.0189
vn 0.2893 0.9210 -0.2609
vn 0.5611 0.8022 0.2038
vn 0.5756 0.7576 -0.3078
vn 0.3301 0.8910 0.3117
vn 0.1141 0.9889 0.0949
vn -0.2445 0.9430 -0.2259
vn -0.2011 0.8015 -0.5632
vn 0.3036 0.7569 -0.5788
vn -0.3612 0.8936 0.2665
vn -0.5756 0.7576 0.3078
vn -0.3036 0.7569 0.5788
vn -0.5611 0.8022 -0.2038
vn -0.1161 0.9626 0.2448
vn -0.2533 0.9059 0.3393
vn -0.0554 0.9683 0.2434
vn 0.3795 0.0000 -0.9252
vn 0.9228 0.0000 -0.3853
vn 0.9226 0.0000 -0.3858
vn 0.9670 0.0000 0.2546
vn 0.8606 0.0000 0.5092
vn 0.3028 0.0000 0.9531
vn 0.3796 0.0000 0.9252
vn -0.3562 0.1405 0.9238
vn 0.3036 0.7569 0.5788
vn 0.0734 0.9272 0.3672
vn 0.2533 0.9059 0.3393
vn -0.0000 0.9646 0.2636
vn 0.0000 0.9647 0.2635
vn -0.3797 0.0000 -0.9251
vn -0.9228 0.0000 -0.3853
vn -0.9226 0.0000 -0.3858
vn -0.9226 -0.0000 0.3858
vn -0.3796 0.0000 0.9252
vn 0.2582 0.1018 0.9607
vn -0.8827 0.4444 0.1529
vn -0.8507 0.5257 -0.0000
vn 0.8507 0.5257 0.0000
vn 0.8827 0.4444 0.1529
vn 0.2582 0.1019 0.9607
vn -0.3796 0.0000 -0.9252
vn 0.3796 0.0000 -0.9252
usemtl dmcmedstp.png
s 1
f 1/1/1 2/2/2 3/3/3
f 3/3/3 2/2/2 4/4/4
f 2/2/2 5/5/5 4/4/4
f 4/4/4 5/5/5 6/6/6
f 5/5/5 7/7/7 6/6/6
f 6/6/6 7/7/7 8/8/8
f 7/7/7 9/9/9 8/8/8
f 8/8/8 9/9/9 10/10/10
f 9/9/9 11/11/11 10/10/10
f 10/10/10 11/11/11 12/12/12
f 11/11/11 13/13/13 12/12/12
f 12/12/12 13/13/13 14/14/14
f 13/13/13 15/15/15 14/14/14
f 14/14/14 15/15/15 16/16/16
f 15/15/15 17/17/17 16/16/16
f 16/16/16 17/17/17 18/18/18
f 17/17/17 19/19/19 18/18/18
f 18/18/18 19/19/19 20/20/20
f 19/19/19 21/21/21 20/20/20
f 20/20/20 21/21/21 22/22/22
f 21/21/21 23/23/23 22/22/22
f 22/22/22 23/23/23 24/24/24
f 23/23/23 25/25/25 24/24/24
f 26/26/26 27/27/27 20/20/28
f 20/20/28 27/27/27 18/18/29
f 27/27/27 28/28/30 18/18/29
f 18/18/29 28/28/30 16/16/31
f 28/28/30 29/29/32 16/16/31
f 16/16/31 29/29/32 14/14/33
f 29/29/32 30/30/34 14/14/33
f 14/14/33 30/30/34 12/12/35
f 30/30/34 31/31/36 12/12/35
f 12/12/35 31/31/36 10/10/37
f 31/31/36 32/32/38 10/10/37
f 10/10/37 32/32/38 8/8/39
f 32/32/38 33/33/40 8/8/39
f 8/8/39 33/33/40 6/6/41
f 33/33/40 34/34/42 6/6/41
f 6/6/41 34/34/42 4/4/43
f 34/34/42 35/35/44 4/4/43
f 4/4/43 35/35/44 3/36/45
f 35/35/44 36/37/46 3/36/45
f 3/36/45 36/37/46 37/38/47
f 36/37/46 38/39/47 37/38/47
f 39/40/48 1/1/1 3/3/3
f 22/41/49 26/26/26 20/20/28
usemtl dmcmedtop.png
f 40/42/50 41/43/51 42/44/52
f 40/42/50 43/45/53 41/43/51
f 40/42/50 44/46/54 43/45/53
f 40/42/50 45/47/55 44/46/54
f 40/42/50 46/48/56 45/47/55
f 40/42/50 47/49/57 46/48/56
f 40/42/50 42/44/52 47/49/57
f 48/50/58 49/51/59 50/52/60
f 48/50/58 51/53/61 49/51/59
f 48/50/58 45/47/55 51/53/61
f 48/50/58 52/54/62 45/47/55
f 48/50/58 53/55/63 52/54/62
f 48/50/58 54/56/64 53/55/63
f 48/50/58 50/52/60 54/56/64
f 55/57/65 42/44/66 56/58/67
f 56/58/67 42/44/66 57/59/68
f 42/44/66 41/43/69 57/59/68
f 57/59/68 41/43/69 58/60/70
f 41/43/69 59/61/71 58/60/70
f 58/60/70 59/61/71 60/62/72
f 43/45/53 59/61/73 41/43/51
f 43/45/53 60/63/74 59/61/73
f 43/45/53 61/64/75 60/63/74
f 43/45/53 44/46/54 61/64/75
f 45/47/55 52/54/62 44/46/54
f 44/46/54 52/54/62 62/65/76
f 52/54/62 63/66/77 62/65/76
f 62/65/76 63/66/77 54/56/64
f 46/67/78 64/68/79 51/53/80
f 51/53/80 64/68/79 49/51/81
f 64/68/79 65/69/81 49/51/81
f 49/51/81 65/69/81 66/70/82
f 49/51/81 66/70/82 50/71/82
f 50/71/82 66/70/82 54/72/83
f 66/70/82 58/60/70 54/72/83
f 54/72/83 58/60/70 60/62/72
f 60/63/72 61/64/84 62/65/84
f 62/65/84 61/64/84 44/46/85
f 52/54/86 53/55/87 63/66/87
f 63/66/87 53/55/87 54/56/88
f 67/73/89 46/67/78 55/74/65
f 55/74/65 46/67/78 47/75/90
f 51/53/61 45/47/55 46/48/56
f 54/56/64 60/63/74 62/65/76
f 47/75/90 42/44/66 55/57/65
f 67/76/89 64/68/79 46/67/78
